<?xml version="1.0" encoding="UTF-8" standalone="no"?>
<!-- Generator: Adobe Illustrator 16.0.3, SVG Export Plug-In . SVG Version: 6.00 Build 0)  -->

<svg
   xmlns:dc="http://purl.org/dc/elements/1.1/"
   xmlns:cc="http://creativecommons.org/ns#"
   xmlns:rdf="http://www.w3.org/1999/02/22-rdf-syntax-ns#"
   xmlns:svg="http://www.w3.org/2000/svg"
   xmlns="http://www.w3.org/2000/svg"
   xmlns:sodipodi="http://sodipodi.sourceforge.net/DTD/sodipodi-0.dtd"
   xmlns:inkscape="http://www.inkscape.org/namespaces/inkscape"
   version="1.1"
   id="Layer_2"
   x="0px"
   y="0px"
   width="524.65625"
   height="439.21875"
   viewBox="0 0 524.65625 439.21875"
   enable-background="new 0 0 960 560"
   xml:space="preserve"
   inkscape:version="0.48.5 r10040"
   sodipodi:docname="g2.logo-blue.svg">
   <metadata id="metadata13">
		<rdf:RDF>
			<cc:Work rdf:about="">
				<dc:format>image/svg+xml</dc:format>
				<dc:type rdf:resource="http://purl.org/dc/dcmitype/StillImage" />
				<dc:title></dc:title>
			</cc:Work>
		</rdf:RDF>
	</metadata>
	<defs id="defs11" />
	<sodipodi:namedview
	   pagecolor="#ffffff"
	   bordercolor="#666666"
	   borderopacity="1"
	   objecttolerance="10"
	   gridtolerance="10"
	   guidetolerance="10"
	   inkscape:pageopacity="0"
	   inkscape:pageshadow="2"
	   inkscape:window-width="1356"
	   inkscape:window-height="890"
	   id="namedview9"
	   showgrid="false"
	   inkscape:zoom="0.84263558"
	   inkscape:cx="271.65707"
	   inkscape:cy="120.29485"
	   inkscape:window-x="2232"
	   inkscape:window-y="62"
	   inkscape:window-maximized="0"
	   inkscape:current-layer="Layer_2"
	   fit-margin-top="0"
	   fit-margin-left="0"
	   fit-margin-right="0"
	   fit-margin-bottom="0" />
	<g
	   id="g3"
	   transform="translate(-213.5625,-59.125)">
		<path
		   d="m 541,311 v 48 h 102 v 44 H 497 V 267 h 91.5 c 6.213,0 10.5,-5.038 10.5,-11.25 v -50.823 c 0,-6.213 -4.287,-10.926 -10.5,-10.926 H 541 v 37 h -44 v -81 h 108.5 c 21.125,0 37.5,16.625 37.5,37.75 v 84.75 c 0,21.125 -16.375,38.5 -37.5,38.5 H 541 z M 452,231 V 150 H 345.75 C 324.625,150 307,166.625 307,187.75 V 364.5 c 0,21.125 17.625,38.5 38.75,38.5 H 452 V 267 h -67 v 44 h 23 v 48 H 383.569 362.75 C 356.537,359 351,353.963 351,347.75 V 326.682 204.926 C 351,198.713 356.537,194 362.75,194 H 408 v 37 h 44 z"
		   id="path5"
		   style="fill:#0099cc;fill-opacity:1"
		   inkscape:connector-curvature="0" />
	</g>
	<path
	   d="m 516.4375,44.417 v 345.167 c 0,21.124 -16.375,39.291 -37.5,39.291 h -431.75 c -21.125,0 -38.75,-17.875 -38.75,-39 V 44.125 c 0,-21.125 17.625,-37.25 38.75,-37.25 h 431.75 c 21.125,0 37.5,16.417 37.5,37.542 z m -54.5,6.458 h -397.75 c -6.213,0 -11.75,4.213 -11.75,10.426 v 311.824 c 0,6.213 5.537,11.75 11.75,11.75 h 397.75 c 6.213,0 10.5,-5.826 10.5,-12.039 V 61.59 c 0,-6.213 -4.287,-10.715 -10.5,-10.715 z"
	   id="path7"
	   style="fill:#0099cc;fill-opacity:1"
	   inkscape:connector-curvature="0" />
</svg>