<?xml version="1.0" encoding="UTF-8" standalone="no"?>
<!-- Created with Inkscape (http://www.inkscape.org/) -->

<svg
   xmlns:dc="http://purl.org/dc/elements/1.1/"
   xmlns:cc="http://creativecommons.org/ns#"
   xmlns:rdf="http://www.w3.org/1999/02/22-rdf-syntax-ns#"
   xmlns:svg="http://www.w3.org/2000/svg"
   xmlns="http://www.w3.org/2000/svg"
   xmlns:sodipodi="http://sodipodi.sourceforge.net/DTD/sodipodi-0.dtd"
   xmlns:inkscape="http://www.inkscape.org/namespaces/inkscape"
   width="55.09375"
   height="35.46875"
   id="svg3055"
   version="1.1"
   inkscape:version="0.48.5 r10040"
   sodipodi:docname="New document 2">
  <defs
     id="defs3057" />
  <sodipodi:namedview
     id="base"
     pagecolor="#ffffff"
     bordercolor="#666666"
     borderopacity="1.0"
     inkscape:pageopacity="0.0"
     inkscape:pageshadow="2"
     inkscape:zoom="5.6"
     inkscape:cx="44.323173"
     inkscape:cy="-10.149685"
     inkscape:document-units="px"
     inkscape:current-layer="layer1"
     showgrid="false"
     fit-margin-top="0"
     fit-margin-left="0"
     fit-margin-right="0"
     fit-margin-bottom="0"
     inkscape:window-width="757"
     inkscape:window-height="1025"
     inkscape:window-x="3611"
     inkscape:window-y="79"
     inkscape:window-maximized="0" />
  <metadata
     id="metadata3060">
    <rdf:RDF>
      <cc:Work
         rdf:about="">
        <dc:format>image/svg+xml</dc:format>
        <dc:type
           rdf:resource="http://purl.org/dc/dcmitype/StillImage" />
        <dc:title></dc:title>
      </cc:Work>
    </rdf:RDF>
  </metadata>
  <g
     inkscape:label="Layer 1"
     inkscape:groupmode="layer"
     id="layer1"
     transform="translate(-187.625,-175.34375)">
    <path
       d="m 218.14444,184.25861 -7.30784,1.1e-4 c -1.35396,-1.49081 -3.54273,-1.70691 -5.1434,-1.67537 -2.82553,3e-5 -5.19207,0.93753 -7.09961,2.8125 -1.90756,1.87502 -2.86133,4.15367 -2.86132,6.83594 -1e-5,2.77345 0.98957,5.12371 2.96875,7.05078 1.97915,1.92709 4.42055,2.89063 7.32421,2.89063 1.88801,0 3.4798,-0.39713 4.7754,-1.19141 1.29554,-0.79426 2.34047,-2.03775 3.13476,-3.73047 l -8.32031,0 4.15179,-5.13672 10.30133,0 0.0391,1.21094 c -4e-5,2.51303 -0.65108,4.89584 -1.95313,7.14844 -1.30211,2.25261 -2.98831,3.97136 -5.05859,5.15625 -2.07034,1.18489 -4.49872,1.77734 -7.28516,1.77734 -2.98178,0 -5.64129,-0.64778 -7.97851,-1.94336 -2.33725,-1.29557 -4.18621,-3.14127 -5.54688,-5.53711 -1.36068,-2.39582 -2.04102,-4.98045 -2.04102,-7.7539 0,-3.80207 1.25651,-7.10936 3.76954,-9.92188 2.98176,-3.34632 6.86196,-5.0195 11.64062,-5.01953 2.49998,3e-5 5.00496,0.9087 7.13482,2.01172 2.10377,1.36163 2.93474,2.19097 4.46936,3.91342 z"
       id="path3965-1"
       inkscape:connector-curvature="0"
       sodipodi:nodetypes="cccssssscccccccssssccccc"
       style="font-size:40px;font-style:normal;font-variant:normal;font-weight:bold;font-stretch:normal;line-height:125%;letter-spacing:0px;word-spacing:0px;fill:#000000;fill-opacity:1;stroke:none;display:inline;font-family:Century Gothic;-inkscape-font-specification:Century Gothic Bold" />
    <g
       transform="translate(-170.61022,-237.88425)"
       style="font-size:41.02890778px;font-style:normal;font-variant:normal;font-weight:bold;font-stretch:normal;line-height:125%;letter-spacing:0px;word-spacing:0px;fill:#5f5f5f;fill-opacity:1;stroke:none;display:inline;font-family:Century Gothic;-inkscape-font-specification:Century Gothic Bold"
       id="text2989-0-5-1">
      <path
         d="m 390.08212,422.11865 c 0.0958,-0.32617 0.20639,-0.64366 0.33189,-0.95246 0.48583,-1.19534 1.19452,-2.26047 2.12609,-3.19539 1.86312,-1.86977 4.16365,-2.80468 6.90159,-2.80471 2.71121,3e-5 4.90489,0.87484 6.58105,2.62441 1.67613,1.74963 2.5142,3.8131 2.51423,6.1904 -3e-5,1.66949 -0.4007,3.23545 -1.20202,4.69789 -0.80137,1.46247 -2.35731,3.44246 -4.66784,5.93998 l -7.33232,7.91329 11.30193,0 2.30092,2.84477 -20.01361,0 11.2589,-12.16042 c 2.28383,-2.44409 3.76965,-4.25713 4.45749,-5.43914 0.68781,-1.18196 1.03172,-2.42739 1.03173,-3.73627 -10e-6,-1.65609 -0.61772,-3.08182 -1.85311,-4.27718 -1.23542,-1.19532 -2.74796,-1.79299 -4.53762,-1.79302 -1.88317,3e-5 -3.44914,0.62774 -4.69789,1.88317 -0.62438,0.62773 -1.11437,1.38234 -1.46997,2.26381 z"
         style="font-weight:normal;fill:#5f5f5f;fill-opacity:1;-inkscape-font-specification:Century Gothic"
         id="path3127"
         inkscape:connector-curvature="0"
         sodipodi:nodetypes="cscccccccccccscccscc" />
    </g>
  </g>
</svg>
