<?xml version="1.0" encoding="UTF-8" standalone="no"?>
<!-- Generator: Adobe Illustrator 16.0.0, SVG Export Plug-In . SVG Version: 6.00 Build 0)  -->

<svg
   xmlns:dc="http://purl.org/dc/elements/1.1/"
   xmlns:cc="http://creativecommons.org/ns#"
   xmlns:rdf="http://www.w3.org/1999/02/22-rdf-syntax-ns#"
   xmlns:svg="http://www.w3.org/2000/svg"
   xmlns="http://www.w3.org/2000/svg"
   xmlns:sodipodi="http://sodipodi.sourceforge.net/DTD/sodipodi-0.dtd"
   xmlns:inkscape="http://www.inkscape.org/namespaces/inkscape"
   version="1.1"
   id="Layer_1"
   x="0px"
   y="0px"
   width="512px"
   height="512px"
   viewBox="0 0 512 512"
   enable-background="new 0 0 512 512"
   xml:space="preserve"
   inkscape:version="0.48.5 r10040"
   sodipodi:docname="lock-10-white.svg"><metadata
   id="metadata9"><rdf:RDF><cc:Work
       rdf:about=""><dc:format>image/svg+xml</dc:format><dc:type
         rdf:resource="http://purl.org/dc/dcmitype/StillImage" /><dc:title></dc:title></cc:Work></rdf:RDF></metadata><defs
   id="defs7" /><sodipodi:namedview
   pagecolor="#ffffff"
   bordercolor="#666666"
   borderopacity="1"
   objecttolerance="10"
   gridtolerance="10"
   guidetolerance="10"
   inkscape:pageopacity="0"
   inkscape:pageshadow="2"
   inkscape:window-width="864"
   inkscape:window-height="854"
   id="namedview5"
   showgrid="false"
   inkscape:zoom="0.4609375"
   inkscape:cx="-82.440678"
   inkscape:cy="256"
   inkscape:window-x="2016"
   inkscape:window-y="96"
   inkscape:window-maximized="0"
   inkscape:current-layer="Layer_1" />
<path
   d="M384,243.5V159c0-70.688-57.313-128-128-128S128,88.313,128,159v84.5c-10.75,3.5-21.5,7.125-32,11.5v192  c102.406,42.656,217.594,42.656,320,0V255C405.5,250.625,394.75,247,384,243.5z M288,415h-64l11.938-71.625  C228.813,337.5,224,328.938,224,319c0-17.688,14.313-32,32-32s32,14.313,32,32c0,9.938-4.813,18.5-11.938,24.375L288,415z   M352,234.719c-63.156-15-128.813-15-192,0V159c0-52.938,43.063-96,96-96s96,43.063,96,96V234.719z"
   id="path3"
   style="fill:#0099cc;fill-opacity:1" />
</svg>