<?xml version="1.0" encoding="UTF-8" standalone="no"?>
<!-- Generated by IcoMoon.io -->

<svg
   xmlns:dc="http://purl.org/dc/elements/1.1/"
   xmlns:cc="http://creativecommons.org/ns#"
   xmlns:rdf="http://www.w3.org/1999/02/22-rdf-syntax-ns#"
   xmlns:svg="http://www.w3.org/2000/svg"
   xmlns="http://www.w3.org/2000/svg"
   xmlns:sodipodi="http://sodipodi.sourceforge.net/DTD/sodipodi-0.dtd"
   xmlns:inkscape="http://www.inkscape.org/namespaces/inkscape"
   version="1.1"
   width="512"
   height="512"
   viewBox="0 0 512 512"
   id="svg2"
   inkscape:version="0.48.5 r10040"
   sodipodi:docname="Question-blue.svg">
  <metadata
     id="metadata12">
    <rdf:RDF>
      <cc:Work
         rdf:about="">
        <dc:format>image/svg+xml</dc:format>
        <dc:type
           rdf:resource="http://purl.org/dc/dcmitype/StillImage" />
        <dc:title></dc:title>
      </cc:Work>
    </rdf:RDF>
  </metadata>
  <defs
     id="defs10" />
  <sodipodi:namedview
     pagecolor="#ffffff"
     bordercolor="#666666"
     borderopacity="1"
     objecttolerance="10"
     gridtolerance="10"
     guidetolerance="10"
     inkscape:pageopacity="0"
     inkscape:pageshadow="2"
     inkscape:window-width="1282"
     inkscape:window-height="866"
     id="namedview8"
     showgrid="false"
     inkscape:zoom="0.921875"
     inkscape:cx="170.99297"
     inkscape:cy="256"
     inkscape:window-x="235"
     inkscape:window-y="145"
     inkscape:window-maximized="0"
     inkscape:current-layer="svg2" />
  <g
     id="g4" />
  <g
     style="font-size:72px;font-style:normal;font-variant:normal;font-weight:bold;font-stretch:normal;line-height:125%;letter-spacing:0px;word-spacing:0px;fill:#0099cc;fill-opacity:1;stroke:none;font-family:Segoe WP;-inkscape-font-specification:Segoe WP Bold"
     id="text2985"
     transform="matrix(9.1460502,0,0,9.1460502,4144.5767,-2817.8516)">
    <path
       d="m -430.07593,346.63049 c -0.23438,-0.60936 -0.41602,-1.2949 -0.54492,-2.05664 -0.12891,-0.7617 -0.19337,-1.4824 -0.19336,-2.16211 -10e-6,-1.0781 0.10546,-2.06248 0.31641,-2.95312 0.21093,-0.8906 0.52733,-1.72849 0.94922,-2.51367 0.42186,-0.78513 0.9492,-1.53513 1.58203,-2.25 0.6328,-0.71482 1.37108,-1.4238 2.21484,-2.12696 0.89061,-0.74997 1.66991,-1.44723 2.33789,-2.09179 0.66795,-0.6445 1.23631,-1.28903 1.70508,-1.9336 0.46873,-0.6445 0.82029,-1.31246 1.05469,-2.0039 0.23435,-0.69137 0.35154,-1.45895 0.35156,-2.30274 -2e-5,-0.72652 -0.12893,-1.40035 -0.38672,-2.02148 -0.25783,-0.62106 -0.62697,-1.15426 -1.10742,-1.59961 -0.48049,-0.44527 -1.06642,-0.79684 -1.75781,-1.05469 -0.69142,-0.25777 -1.459,-0.38668 -2.30274,-0.38672 -1.82813,4e-5 -3.72657,0.3809 -5.69531,1.14258 -1.96876,0.76176 -3.83204,1.91605 -5.58984,3.46289 l 0,-10.58203 c 1.80468,-1.07808 3.77343,-1.88667 5.90625,-2.42578 2.1328,-0.53901 4.33592,-0.80854 6.60937,-0.8086 2.17967,6e-5 4.20701,0.24029 6.08203,0.72071 1.87498,0.48052 3.50974,1.23637 4.9043,2.26758 1.3945,1.03129 2.48435,2.34965 3.26953,3.95507 0.78513,1.60552 1.1777,3.53325 1.17773,5.78321 -3e-5,1.42972 -0.16409,2.72464 -0.49218,3.88476 -0.32816,1.16019 -0.80863,2.25589 -1.44141,3.28711 -0.63284,1.03128 -1.41799,2.02152 -2.35547,2.97071 -0.93752,0.94924 -2.01565,1.92776 -3.23437,2.93554 -0.82034,0.67971 -1.54104,1.31253 -2.16211,1.89844 -0.62112,0.58596 -1.13674,1.16604 -1.54688,1.74023 -0.41017,0.57424 -0.72072,1.18362 -0.93164,1.82813 -0.21095,0.64455 -0.31642,1.37697 -0.3164,2.19726 -2e-5,0.56252 0.0762,1.13674 0.22851,1.72266 0.15233,0.58595 0.35741,1.07814 0.61524,1.47656 z m 5.13281,15.39844 c -1.87501,0 -3.4336,-0.5625 -4.67578,-1.6875 -1.24219,-1.17187 -1.86329,-2.55468 -1.86328,-4.14844 -10e-6,-1.64062 0.62109,-3.01171 1.86328,-4.11328 1.24218,-1.10155 2.80077,-1.65233 4.67578,-1.65234 1.85155,1e-5 3.38671,0.55079 4.60547,1.65234 1.21873,1.07813 1.82811,2.44923 1.82813,4.11328 -2e-5,1.68751 -0.59768,3.08204 -1.79297,4.1836 -1.21877,1.10156 -2.76564,1.65234 -4.64063,1.65234 z"
       id="path2990"
       inkscape:connector-curvature="0"
       style="fill:#0099cc;fill-opacity:1" />
  </g>
</svg>
