<?xml version="1.0" encoding="UTF-8" standalone="no"?>
<!-- Generated by IcoMoon.io -->

<svg
   xmlns:dc="http://purl.org/dc/elements/1.1/"
   xmlns:cc="http://creativecommons.org/ns#"
   xmlns:rdf="http://www.w3.org/1999/02/22-rdf-syntax-ns#"
   xmlns:svg="http://www.w3.org/2000/svg"
   xmlns="http://www.w3.org/2000/svg"
   xmlns:sodipodi="http://sodipodi.sourceforge.net/DTD/sodipodi-0.dtd"
   xmlns:inkscape="http://www.inkscape.org/namespaces/inkscape"
   version="1.1"
   width="512"
   height="512"
   viewBox="0 0 512 512"
   id="svg2"
   inkscape:version="0.48.5 r10040"
   sodipodi:docname="Shield-blue.svg">
  <metadata
     id="metadata12">
    <rdf:RDF>
      <cc:Work
         rdf:about="">
        <dc:format>image/svg+xml</dc:format>
        <dc:type
           rdf:resource="http://purl.org/dc/dcmitype/StillImage" />
        <dc:title></dc:title>
      </cc:Work>
    </rdf:RDF>
  </metadata>
  <defs
     id="defs10" />
  <sodipodi:namedview
     pagecolor="#ffffff"
     bordercolor="#666666"
     borderopacity="1"
     objecttolerance="10"
     gridtolerance="10"
     guidetolerance="10"
     inkscape:pageopacity="0"
     inkscape:pageshadow="2"
     inkscape:window-width="1232"
     inkscape:window-height="1042"
     id="namedview8"
     showgrid="false"
     inkscape:zoom="0.921875"
     inkscape:cx="343.35428"
     inkscape:cy="256"
     inkscape:window-x="672"
     inkscape:window-y="0"
     inkscape:window-maximized="0"
     inkscape:current-layer="text2985" />
  <g
     id="g4" />
  <g
     style="font-size:72px;font-style:normal;font-variant:normal;font-weight:bold;font-stretch:normal;line-height:125%;letter-spacing:0px;word-spacing:0px;fill:#0099cc;fill-opacity:1;stroke:none;font-family:Segoe WP;-inkscape-font-specification:Segoe WP Bold"
     id="text2985"
     transform="matrix(9.1460502,0,0,9.1460502,4144.5767,-2817.8516)">
    <path
       d="m -402.19911,315.89689 c -1.00121,-2.49368 -2.49694,-4.48959 -3.99278,-5.98542 -3.49058,2.49379 -6.98118,3.49164 -10.47177,3.49164 -2.99491,0 -5.98973,-0.99785 -7.98238,-3.49164 -2.49484,2.49379 -5.4886,3.49164 -8.48132,3.49164 -3.49059,0 -6.98119,-0.99785 -10.47608,-3.49164 -1.49688,1.49583 -2.9905,3.49059 -3.99067,5.98542 -1.49583,2.99377 -2.49379,6.48551 -2.49379,9.97715 0,9.47707 2.49379,17.45936 6.98338,23.94277 4.48961,5.98334 10.47503,9.976 18.45838,11.9676 7.4823,-1.9915 13.46668,-5.98333 17.95732,-11.9676 4.49065,-6.48331 6.98329,-14.46664 6.98329,-23.94277 0,-3.49164 -0.99785,-6.98338 -2.49379,-9.97715 z"
       id="path8"
       inkscape:connector-curvature="0"
       style="fill:#0099cc;fill-opacity:1"
       sodipodi:nodetypes="ccscsccscccscc" />
  </g>
</svg>
